<svg width="252" height="56" viewBox="0 0 252 56" fill="none" xmlns="http://www.w3.org/2000/svg">
<g filter="url(#filter0_d)">
<rect x="4" width="244" height="47.5808" rx="23.7904" fill="#F2F2F2"/>
<path d="M91.8599 13.3408C93.1984 13.3408 94.2427 13.6012 94.9927 14.1221C95.7427 14.6429 96.1177 15.4215 96.1177 16.458C96.1177 16.984 95.977 17.4554 95.6958 17.8721C95.4198 18.2835 95.0161 18.5934 94.4849 18.8018C95.1671 18.9476 95.6776 19.2601 96.0161 19.7393C96.3599 20.2184 96.5317 20.7731 96.5317 21.4033C96.5317 22.4919 96.1724 23.3174 95.4536 23.8799C94.7349 24.4372 93.7166 24.7158 92.3989 24.7158H86.8052V23.3486L88.0161 23.1143V14.9502L86.8052 14.7158V13.3408H88.0161H91.8599ZM90.2974 19.6846V22.9658H92.3989C93.0031 22.9658 93.464 22.8356 93.7817 22.5752C94.0994 22.3096 94.2583 21.9189 94.2583 21.4033C94.2583 20.846 94.1229 20.4215 93.852 20.1299C93.5812 19.833 93.1541 19.6846 92.5708 19.6846H90.2974ZM90.2974 18.1064H91.938C92.5474 18.1064 93.0161 17.9814 93.3442 17.7314C93.6724 17.4814 93.8364 17.1169 93.8364 16.6377C93.8364 16.1117 93.6698 15.7236 93.3364 15.4736C93.0083 15.2236 92.5161 15.0986 91.8599 15.0986H90.2974V18.1064ZM101.485 24.8799C100.266 24.8799 99.2921 24.4893 98.563 23.708C97.8338 22.9268 97.4692 21.9346 97.4692 20.7314V20.4189C97.4692 19.1637 97.813 18.1299 98.5005 17.3174C99.1932 16.5049 100.12 16.1012 101.282 16.1064C102.422 16.1064 103.308 16.4502 103.938 17.1377C104.568 17.8252 104.883 18.7549 104.883 19.9268V21.1689H99.8364L99.8208 21.2158C99.8625 21.7731 100.047 22.2314 100.375 22.5908C100.709 22.9502 101.159 23.1299 101.727 23.1299C102.232 23.1299 102.652 23.0804 102.985 22.9814C103.318 22.8773 103.683 22.7158 104.079 22.4971L104.696 23.9033C104.347 24.1794 103.894 24.4111 103.336 24.5986C102.784 24.7861 102.167 24.8799 101.485 24.8799ZM101.282 17.8643C100.86 17.8643 100.527 18.0257 100.282 18.3486C100.037 18.6715 99.8859 19.096 99.8286 19.6221L99.852 19.6611H102.649V19.458C102.649 18.9736 102.534 18.5882 102.305 18.3018C102.081 18.0101 101.74 17.8643 101.282 17.8643ZM106.11 20.5596C106.11 19.2262 106.399 18.1507 106.977 17.333C107.56 16.5153 108.375 16.1064 109.422 16.1064C109.896 16.1064 110.313 16.2132 110.672 16.4268C111.032 16.6351 111.339 16.9346 111.594 17.3252L111.758 16.2627H113.743V24.4658C113.743 25.5804 113.391 26.4684 112.688 27.1299C111.99 27.7965 111.029 28.1299 109.805 28.1299C109.378 28.1299 108.925 28.07 108.446 27.9502C107.967 27.8356 107.524 27.6768 107.118 27.4736L107.54 25.8721C107.904 26.0283 108.269 26.1507 108.633 26.2393C108.998 26.333 109.383 26.3799 109.79 26.3799C110.347 26.3799 110.764 26.2106 111.04 25.8721C111.316 25.5335 111.454 25.0622 111.454 24.458V23.9033C111.204 24.221 110.909 24.4632 110.571 24.6299C110.232 24.7965 109.844 24.8799 109.407 24.8799C108.37 24.8799 107.56 24.4997 106.977 23.7393C106.399 22.9736 106.11 21.9684 106.11 20.7236V20.5596ZM108.391 20.7236C108.391 21.4632 108.516 22.0465 108.766 22.4736C109.016 22.8955 109.422 23.1064 109.985 23.1064C110.334 23.1064 110.628 23.0439 110.868 22.9189C111.112 22.7887 111.308 22.6012 111.454 22.3564V18.6846C111.308 18.4294 111.112 18.2314 110.868 18.0908C110.628 17.9502 110.339 17.8799 110 17.8799C109.443 17.8799 109.034 18.1273 108.774 18.6221C108.519 19.1169 108.391 19.7627 108.391 20.5596V20.7236ZM115.04 23.3486L116.141 23.1143V17.8721L114.922 17.6377V16.2627H118.422V23.1143L119.516 23.3486V24.7158H115.04V23.3486ZM118.422 14.2393H116.141V12.5283H118.422V14.2393ZM120.141 23.3486L121.235 23.1143V17.8721L120.024 17.6377V16.2627H123.36L123.461 17.4736C123.743 17.0413 124.089 16.7054 124.5 16.4658C124.912 16.2262 125.373 16.1064 125.883 16.1064C126.737 16.1064 127.404 16.3747 127.883 16.9111C128.362 17.4476 128.602 18.2887 128.602 19.4346V23.1143L129.696 23.3486V24.7158H125.336V23.3486L126.313 23.1143V19.4424C126.313 18.8747 126.198 18.4736 125.969 18.2393C125.74 17.9997 125.394 17.8799 124.93 17.8799C124.628 17.8799 124.357 17.9424 124.118 18.0674C123.878 18.1872 123.678 18.359 123.516 18.583V23.1143L124.438 23.3486V24.7158H120.141V23.3486ZM144.305 13.3408V16.3721H142.555L142.461 15.0986H140.368V23.1143L141.586 23.3486V24.7158H136.868V23.3486L138.086 23.1143V15.0986H136L135.907 16.3721H134.165V13.3408H144.305ZM148.454 24.8799C147.235 24.8799 146.261 24.4893 145.532 23.708C144.803 22.9268 144.438 21.9346 144.438 20.7314V20.4189C144.438 19.1637 144.782 18.1299 145.469 17.3174C146.162 16.5049 147.089 16.1012 148.25 16.1064C149.391 16.1064 150.277 16.4502 150.907 17.1377C151.537 17.8252 151.852 18.7549 151.852 19.9268V21.1689H146.805L146.79 21.2158C146.831 21.7731 147.016 22.2314 147.344 22.5908C147.678 22.9502 148.128 23.1299 148.696 23.1299C149.201 23.1299 149.62 23.0804 149.954 22.9814C150.287 22.8773 150.652 22.7158 151.047 22.4971L151.665 23.9033C151.316 24.1794 150.862 24.4111 150.305 24.5986C149.753 24.7861 149.136 24.8799 148.454 24.8799ZM148.25 17.8643C147.829 17.8643 147.495 18.0257 147.25 18.3486C147.006 18.6715 146.855 19.096 146.797 19.6221L146.821 19.6611H149.618V19.458C149.618 18.9736 149.503 18.5882 149.274 18.3018C149.05 18.0101 148.709 17.8643 148.25 17.8643ZM159.836 19.1689H158.305L158.063 18.1143C157.907 17.9893 157.709 17.8851 157.469 17.8018C157.235 17.7184 156.974 17.6768 156.688 17.6768C156.287 17.6768 155.969 17.7679 155.735 17.9502C155.5 18.1273 155.383 18.3512 155.383 18.6221C155.383 18.8773 155.495 19.0908 155.719 19.2627C155.943 19.4294 156.391 19.5778 157.063 19.708C158.11 19.9163 158.886 20.2236 159.391 20.6299C159.896 21.0309 160.149 21.5856 160.149 22.2939C160.149 23.0544 159.821 23.6768 159.165 24.1611C158.514 24.6403 157.654 24.8799 156.586 24.8799C155.935 24.8799 155.336 24.7861 154.79 24.5986C154.248 24.4059 153.766 24.1325 153.344 23.7783L153.321 21.8799H154.915L155.227 22.9814C155.362 23.096 155.547 23.182 155.782 23.2393C156.016 23.2913 156.261 23.3174 156.516 23.3174C156.98 23.3174 157.331 23.234 157.571 23.0674C157.816 22.9007 157.938 22.6742 157.938 22.3877C157.938 22.1377 157.816 21.9215 157.571 21.7393C157.326 21.557 156.875 21.3955 156.219 21.2549C155.224 21.0518 154.472 20.7523 153.961 20.3564C153.456 19.9554 153.204 19.4111 153.204 18.7236C153.204 18.0153 153.495 17.4059 154.079 16.8955C154.662 16.3799 155.493 16.1221 156.571 16.1221C157.227 16.1221 157.847 16.2106 158.43 16.3877C159.019 16.5648 159.48 16.7913 159.813 17.0674L159.836 19.1689ZM164.54 14.1924V16.2627H166.024V17.8643H164.54V22.1689C164.54 22.4971 164.607 22.7314 164.743 22.8721C164.878 23.0127 165.06 23.083 165.29 23.083C165.446 23.083 165.581 23.0778 165.696 23.0674C165.816 23.0518 165.948 23.0283 166.094 22.9971L166.29 24.6455C166.034 24.7236 165.782 24.7809 165.532 24.8174C165.282 24.859 165.011 24.8799 164.719 24.8799C163.933 24.8799 163.326 24.6637 162.899 24.2314C162.477 23.7992 162.266 23.1143 162.266 22.1768V17.8643H161.024V16.2627H162.266V14.1924H164.54Z" fill="black"/>
</g>
<defs>
<filter id="filter0_d" x="0" y="0" width="252" height="55.5808" filterUnits="userSpaceOnUse" color-interpolation-filters="sRGB">
<feFlood flood-opacity="0" result="BackgroundImageFix"/>
<feColorMatrix in="SourceAlpha" type="matrix" values="0 0 0 0 0 0 0 0 0 0 0 0 0 0 0 0 0 0 127 0"/>
<feOffset dy="4"/>
<feGaussianBlur stdDeviation="2"/>
<feColorMatrix type="matrix" values="0 0 0 0 0 0 0 0 0 0 0 0 0 0 0 0 0 0 0.25 0"/>
<feBlend mode="normal" in2="BackgroundImageFix" result="effect1_dropShadow"/>
<feBlend mode="normal" in="SourceGraphic" in2="effect1_dropShadow" result="shape"/>
</filter>
</defs>
</svg>
