<svg width="252" height="56" viewBox="0 0 252 56" fill="none" xmlns="http://www.w3.org/2000/svg">
<g filter="url(#filter0_d)">
<rect x="4" width="244" height="47.5808" rx="23.7904" fill="#F2F2F2"/>
<path d="M67.2156 15.4297C66.3042 15.4297 65.5984 15.7734 65.0984 16.4609C64.5984 17.1432 64.3484 18.0964 64.3484 19.3203C64.3484 21.8672 65.3042 23.1406 67.2156 23.1406C68.0177 23.1406 68.9891 22.9401 70.1297 22.5391V24.5703C69.1922 24.9609 68.1453 25.1562 66.9891 25.1562C65.3276 25.1562 64.0568 24.6536 63.1766 23.6484C62.2964 22.638 61.8563 21.1901 61.8563 19.3047C61.8563 18.1172 62.0724 17.0781 62.5047 16.1875C62.937 15.2917 63.5568 14.6068 64.3641 14.1328C65.1766 13.6536 66.1271 13.4141 67.2156 13.4141C68.325 13.4141 69.4396 13.6823 70.5594 14.2188L69.7781 16.1875C69.351 15.9844 68.9214 15.8073 68.4891 15.6562C68.0568 15.5052 67.6323 15.4297 67.2156 15.4297ZM74.2781 20.6172C74.2781 21.4818 74.4188 22.1354 74.7 22.5781C74.9865 23.0208 75.45 23.2422 76.0906 23.2422C76.726 23.2422 77.1818 23.0234 77.4578 22.5859C77.7391 22.1432 77.8797 21.487 77.8797 20.6172C77.8797 19.7526 77.7391 19.1042 77.4578 18.6719C77.1766 18.2396 76.7156 18.0234 76.075 18.0234C75.4396 18.0234 74.9813 18.2396 74.7 18.6719C74.4188 19.099 74.2781 19.7474 74.2781 20.6172ZM80.3172 20.6172C80.3172 22.0391 79.9422 23.151 79.1922 23.9531C78.4422 24.7552 77.3979 25.1562 76.0594 25.1562C75.2208 25.1562 74.4813 24.974 73.8406 24.6094C73.2 24.2396 72.7078 23.7109 72.3641 23.0234C72.0203 22.3359 71.8484 21.5339 71.8484 20.6172C71.8484 19.1901 72.2208 18.0807 72.9656 17.2891C73.7104 16.4974 74.7573 16.1016 76.1063 16.1016C76.9448 16.1016 77.6844 16.2839 78.325 16.6484C78.9656 17.013 79.4578 17.5365 79.8016 18.2188C80.1453 18.901 80.3172 19.7005 80.3172 20.6172ZM90.3484 25H87.9656V19.8984C87.9656 19.2682 87.8537 18.7969 87.6297 18.4844C87.4057 18.1667 87.049 18.0078 86.5594 18.0078C85.8927 18.0078 85.4109 18.2318 85.1141 18.6797C84.8172 19.1224 84.6688 19.8594 84.6688 20.8906V25H82.2859V16.2656H84.1063L84.4266 17.3828H84.5594C84.825 16.9609 85.1896 16.6432 85.6531 16.4297C86.1219 16.2109 86.6531 16.1016 87.2469 16.1016C88.2625 16.1016 89.0333 16.3776 89.5594 16.9297C90.0854 17.4766 90.3484 18.2682 90.3484 19.3047V25ZM96.4813 23.2578C96.8979 23.2578 97.3979 23.1667 97.9813 22.9844V24.7578C97.3875 25.0234 96.6583 25.1562 95.7938 25.1562C94.8406 25.1562 94.1453 24.9167 93.7078 24.4375C93.2755 23.9531 93.0594 23.2292 93.0594 22.2656V18.0547H91.9188V17.0469L93.2313 16.25L93.9188 14.4062H95.4422V16.2656H97.8875V18.0547H95.4422V22.2656C95.4422 22.6042 95.5359 22.8542 95.7234 23.0156C95.9162 23.1771 96.1688 23.2578 96.4813 23.2578ZM105.302 25L104.841 23.8125H104.778C104.377 24.3177 103.963 24.6693 103.536 24.8672C103.114 25.0599 102.562 25.1562 101.88 25.1562C101.041 25.1562 100.38 24.9167 99.8953 24.4375C99.4162 23.9583 99.1766 23.276 99.1766 22.3906C99.1766 21.4635 99.4995 20.7812 100.145 20.3438C100.796 19.901 101.776 19.6562 103.083 19.6094L104.598 19.5625V19.1797C104.598 18.2943 104.145 17.8516 103.239 17.8516C102.541 17.8516 101.721 18.0625 100.778 18.4844L99.9891 16.875C100.994 16.349 102.109 16.0859 103.333 16.0859C104.505 16.0859 105.403 16.3411 106.028 16.8516C106.653 17.362 106.966 18.138 106.966 19.1797V25H105.302ZM104.598 20.9531L103.677 20.9844C102.984 21.0052 102.468 21.1302 102.13 21.3594C101.791 21.5885 101.622 21.9375 101.622 22.4062C101.622 23.0781 102.007 23.4141 102.778 23.4141C103.33 23.4141 103.77 23.2552 104.098 22.9375C104.432 22.6198 104.598 22.1979 104.598 21.6719V20.9531ZM112.973 25.1562C110.255 25.1562 108.895 23.6641 108.895 20.6797C108.895 19.1953 109.265 18.0625 110.005 17.2812C110.744 16.4948 111.804 16.1016 113.184 16.1016C114.195 16.1016 115.101 16.2995 115.903 16.6953L115.2 18.5391C114.825 18.388 114.476 18.2656 114.153 18.1719C113.83 18.0729 113.507 18.0234 113.184 18.0234C111.945 18.0234 111.325 18.9036 111.325 20.6641C111.325 22.3724 111.945 23.2266 113.184 23.2266C113.643 23.2266 114.067 23.1667 114.458 23.0469C114.848 22.9219 115.239 22.7292 115.63 22.4688V24.5078C115.244 24.7526 114.854 24.9219 114.458 25.0156C114.067 25.1094 113.572 25.1562 112.973 25.1562ZM121.341 23.2578C121.757 23.2578 122.257 23.1667 122.841 22.9844V24.7578C122.247 25.0234 121.518 25.1562 120.653 25.1562C119.7 25.1562 119.005 24.9167 118.567 24.4375C118.135 23.9531 117.919 23.2292 117.919 22.2656V18.0547H116.778V17.0469L118.091 16.25L118.778 14.4062H120.302V16.2656H122.747V18.0547H120.302V22.2656C120.302 22.6042 120.395 22.8542 120.583 23.0156C120.776 23.1771 121.028 23.2578 121.341 23.2578ZM135.7 21.8281C135.7 22.8594 135.328 23.6719 134.583 24.2656C133.843 24.8594 132.812 25.1562 131.489 25.1562C130.27 25.1562 129.192 24.9271 128.255 24.4688V22.2188C129.026 22.5625 129.677 22.8047 130.208 22.9453C130.744 23.0859 131.234 23.1562 131.677 23.1562C132.208 23.1562 132.614 23.0547 132.895 22.8516C133.182 22.6484 133.325 22.3464 133.325 21.9453C133.325 21.7214 133.263 21.5234 133.138 21.3516C133.013 21.1745 132.828 21.0052 132.583 20.8438C132.343 20.6823 131.851 20.4245 131.106 20.0703C130.408 19.7422 129.885 19.4271 129.536 19.125C129.187 18.8229 128.908 18.4714 128.7 18.0703C128.492 17.6693 128.388 17.2005 128.388 16.6641C128.388 15.6536 128.729 14.8594 129.411 14.2812C130.098 13.7031 131.046 13.4141 132.255 13.4141C132.848 13.4141 133.414 13.4844 133.95 13.625C134.492 13.7656 135.057 13.9635 135.645 14.2188L134.864 16.1016C134.255 15.8516 133.749 15.6771 133.348 15.5781C132.953 15.4792 132.562 15.4297 132.177 15.4297C131.718 15.4297 131.367 15.5365 131.122 15.75C130.877 15.9635 130.755 16.2422 130.755 16.5859C130.755 16.7995 130.804 16.987 130.903 17.1484C131.002 17.3047 131.158 17.4583 131.372 17.6094C131.591 17.7552 132.104 18.0208 132.911 18.4062C133.979 18.9167 134.71 19.4297 135.106 19.9453C135.502 20.4557 135.7 21.0833 135.7 21.8281ZM143.77 25L143.45 23.8828H143.325C143.07 24.2891 142.708 24.6042 142.239 24.8281C141.77 25.0469 141.236 25.1562 140.638 25.1562C139.611 25.1562 138.838 24.8828 138.317 24.3359C137.796 23.7839 137.536 22.9922 137.536 21.9609V16.2656H139.919V21.3672C139.919 21.9974 140.031 22.4714 140.255 22.7891C140.479 23.1016 140.835 23.2578 141.325 23.2578C141.992 23.2578 142.473 23.0365 142.77 22.5938C143.067 22.1458 143.216 21.4062 143.216 20.375V16.2656H145.598V25H143.77ZM152.895 25.1562C151.869 25.1562 151.065 24.7839 150.481 24.0391H150.356C150.44 24.7682 150.481 25.1901 150.481 25.3047V28.8438H148.098V16.2656H150.036L150.372 17.3984H150.481C151.039 16.5339 151.864 16.1016 152.958 16.1016C153.989 16.1016 154.796 16.5 155.38 17.2969C155.963 18.0938 156.255 19.2005 156.255 20.6172C156.255 21.5495 156.117 22.3594 155.841 23.0469C155.57 23.7344 155.182 24.2578 154.677 24.6172C154.171 24.9766 153.578 25.1562 152.895 25.1562ZM152.192 18.0078C151.604 18.0078 151.174 18.1901 150.903 18.5547C150.632 18.9141 150.492 19.5104 150.481 20.3438V20.6016C150.481 21.5391 150.619 22.2109 150.895 22.6172C151.177 23.0234 151.619 23.2266 152.223 23.2266C153.291 23.2266 153.825 22.3464 153.825 20.5859C153.825 19.7266 153.692 19.0833 153.427 18.6562C153.166 18.224 152.755 18.0078 152.192 18.0078ZM163.02 25.1562C161.994 25.1562 161.19 24.7839 160.606 24.0391H160.481C160.565 24.7682 160.606 25.1901 160.606 25.3047V28.8438H158.223V16.2656H160.161L160.497 17.3984H160.606C161.164 16.5339 161.989 16.1016 163.083 16.1016C164.114 16.1016 164.921 16.5 165.505 17.2969C166.088 18.0938 166.38 19.2005 166.38 20.6172C166.38 21.5495 166.242 22.3594 165.966 23.0469C165.695 23.7344 165.307 24.2578 164.802 24.6172C164.296 24.9766 163.703 25.1562 163.02 25.1562ZM162.317 18.0078C161.729 18.0078 161.299 18.1901 161.028 18.5547C160.757 18.9141 160.617 19.5104 160.606 20.3438V20.6016C160.606 21.5391 160.744 22.2109 161.02 22.6172C161.302 23.0234 161.744 23.2266 162.348 23.2266C163.416 23.2266 163.95 22.3464 163.95 20.5859C163.95 19.7266 163.817 19.0833 163.552 18.6562C163.291 18.224 162.88 18.0078 162.317 18.0078ZM170.247 20.6172C170.247 21.4818 170.388 22.1354 170.669 22.5781C170.955 23.0208 171.419 23.2422 172.059 23.2422C172.695 23.2422 173.151 23.0234 173.427 22.5859C173.708 22.1432 173.848 21.487 173.848 20.6172C173.848 19.7526 173.708 19.1042 173.427 18.6719C173.145 18.2396 172.684 18.0234 172.044 18.0234C171.408 18.0234 170.95 18.2396 170.669 18.6719C170.388 19.099 170.247 19.7474 170.247 20.6172ZM176.286 20.6172C176.286 22.0391 175.911 23.151 175.161 23.9531C174.411 24.7552 173.367 25.1562 172.028 25.1562C171.19 25.1562 170.45 24.974 169.809 24.6094C169.169 24.2396 168.677 23.7109 168.333 23.0234C167.989 22.3359 167.817 21.5339 167.817 20.6172C167.817 19.1901 168.19 18.0807 168.934 17.2891C169.679 16.4974 170.726 16.1016 172.075 16.1016C172.914 16.1016 173.653 16.2839 174.294 16.6484C174.934 17.013 175.427 17.5365 175.77 18.2188C176.114 18.901 176.286 19.7005 176.286 20.6172ZM183.13 16.1016C183.453 16.1016 183.721 16.125 183.934 16.1719L183.755 18.4062C183.562 18.3542 183.328 18.3281 183.052 18.3281C182.291 18.3281 181.697 18.5234 181.27 18.9141C180.848 19.3047 180.638 19.8516 180.638 20.5547V25H178.255V16.2656H180.059L180.411 17.7344H180.528C180.799 17.2448 181.164 16.8516 181.622 16.5547C182.085 16.2526 182.588 16.1016 183.13 16.1016ZM189.2 23.2578C189.617 23.2578 190.117 23.1667 190.7 22.9844V24.7578C190.106 25.0234 189.377 25.1562 188.513 25.1562C187.559 25.1562 186.864 24.9167 186.427 24.4375C185.994 23.9531 185.778 23.2292 185.778 22.2656V18.0547H184.638V17.0469L185.95 16.25L186.638 14.4062H188.161V16.2656H190.606V18.0547H188.161V22.2656C188.161 22.6042 188.255 22.8542 188.442 23.0156C188.635 23.1771 188.888 23.2578 189.2 23.2578Z" fill="black"/>
</g>
<defs>
<filter id="filter0_d" x="0" y="0" width="252" height="55.5808" filterUnits="userSpaceOnUse" color-interpolation-filters="sRGB">
<feFlood flood-opacity="0" result="BackgroundImageFix"/>
<feColorMatrix in="SourceAlpha" type="matrix" values="0 0 0 0 0 0 0 0 0 0 0 0 0 0 0 0 0 0 127 0"/>
<feOffset dy="4"/>
<feGaussianBlur stdDeviation="2"/>
<feColorMatrix type="matrix" values="0 0 0 0 0 0 0 0 0 0 0 0 0 0 0 0 0 0 0.25 0"/>
<feBlend mode="normal" in2="BackgroundImageFix" result="effect1_dropShadow"/>
<feBlend mode="normal" in="SourceGraphic" in2="effect1_dropShadow" result="shape"/>
</filter>
</defs>
</svg>
