<svg width="314" height="241" viewBox="0 0 314 241" fill="none" xmlns="http://www.w3.org/2000/svg">
<g filter="url(#filter0_d)">
<path d="M21.8125 6.75429C75.8125 56.7541 253.298 9.50712 295.298 32.5071C337.297 55.5071 269.812 77.0012 295.298 180.754C320.783 284.507 53.8124 200.754 53.8124 200.754C53.8124 200.754 -32.1875 -43.2455 21.8125 6.75429Z" fill="#C4C4C4"/>
<path d="M126.75 103.551C126.75 106.468 126.234 108.999 125.203 111.145C124.172 113.28 122.672 114.916 120.703 116.051C118.745 117.186 116.422 117.754 113.734 117.754H106.375L111.203 94.9104H117.703C120.578 94.9104 122.802 95.6656 124.375 97.176C125.958 98.676 126.75 100.801 126.75 103.551ZM114.656 112.692C115.802 112.692 116.823 112.327 117.719 111.598C118.625 110.869 119.328 109.832 119.828 108.489C120.328 107.134 120.578 105.593 120.578 103.864C120.578 102.561 120.297 101.577 119.734 100.91C119.172 100.233 118.385 99.8948 117.375 99.8948H116.266L113.578 112.692H114.656ZM136.078 118.067C133.87 118.067 132.151 117.452 130.922 116.223C129.693 114.983 129.078 113.265 129.078 111.067C129.078 108.869 129.51 106.89 130.375 105.129C131.25 103.358 132.443 102.02 133.953 101.114C135.474 100.197 137.229 99.7385 139.219 99.7385C141.198 99.7385 142.755 100.186 143.891 101.082C145.026 101.978 145.594 103.171 145.594 104.66C145.594 106.754 144.776 108.364 143.141 109.489C141.516 110.603 139.161 111.16 136.078 111.16H135.156V111.41C135.156 112.952 136.01 113.723 137.719 113.723C138.542 113.723 139.349 113.603 140.141 113.364C140.932 113.114 141.833 112.723 142.844 112.192V116.473C141.677 117.067 140.588 117.483 139.578 117.723C138.568 117.952 137.401 118.067 136.078 118.067ZM138.547 103.832C137.911 103.832 137.318 104.197 136.766 104.926C136.213 105.645 135.88 106.462 135.766 107.379H136.219C137.354 107.379 138.245 107.166 138.891 106.739C139.536 106.301 139.859 105.728 139.859 105.02C139.859 104.686 139.755 104.405 139.547 104.176C139.338 103.947 139.005 103.832 138.547 103.832ZM149.937 117.754L147.672 100.051H153.687L154.109 109.473C154.109 110.233 154.068 110.848 153.984 111.317H154.109C154.12 111.171 154.213 110.843 154.391 110.332C154.568 109.822 154.755 109.353 154.953 108.926C155.151 108.499 156.531 105.541 159.094 100.051H165.562L156 117.754H149.937ZM170.109 117.754H164.062L167.797 100.051H173.875L170.109 117.754ZM168.531 96.1604C168.531 95.0875 168.838 94.275 169.453 93.7229C170.078 93.1708 170.948 92.8948 172.062 92.8948C173.01 92.8948 173.74 93.0875 174.25 93.4729C174.771 93.8479 175.031 94.3896 175.031 95.0979C175.031 96.1396 174.729 96.9469 174.125 97.5198C173.521 98.0823 172.651 98.3635 171.516 98.3635C169.526 98.3635 168.531 97.6292 168.531 96.1604ZM182.016 118.067C179.943 118.067 178.323 117.442 177.156 116.192C176 114.931 175.422 113.15 175.422 110.848C175.422 108.754 175.818 106.858 176.609 105.16C177.411 103.452 178.531 102.124 179.969 101.176C181.417 100.218 183.057 99.7385 184.891 99.7385C186.922 99.7385 188.833 100.155 190.625 100.989L188.703 105.473C187.318 104.848 186.146 104.535 185.187 104.535C184.542 104.535 183.943 104.785 183.391 105.285C182.838 105.785 182.385 106.535 182.031 107.535C181.677 108.525 181.5 109.499 181.5 110.457C181.5 111.405 181.656 112.103 181.969 112.551C182.281 112.989 182.776 113.207 183.453 113.207C184.203 113.207 184.927 113.087 185.625 112.848C186.333 112.608 187.083 112.28 187.875 111.864V116.66C187.042 117.119 186.161 117.468 185.234 117.707C184.318 117.947 183.245 118.067 182.016 118.067ZM198.547 118.067C196.338 118.067 194.62 117.452 193.391 116.223C192.161 114.983 191.547 113.265 191.547 111.067C191.547 108.869 191.979 106.89 192.844 105.129C193.719 103.358 194.911 102.02 196.422 101.114C197.943 100.197 199.698 99.7385 201.687 99.7385C203.667 99.7385 205.224 100.186 206.359 101.082C207.495 101.978 208.062 103.171 208.062 104.66C208.062 106.754 207.245 108.364 205.609 109.489C203.984 110.603 201.63 111.16 198.547 111.16H197.625V111.41C197.625 112.952 198.479 113.723 200.187 113.723C201.01 113.723 201.818 113.603 202.609 113.364C203.401 113.114 204.302 112.723 205.312 112.192V116.473C204.146 117.067 203.057 117.483 202.047 117.723C201.036 117.952 199.87 118.067 198.547 118.067ZM201.016 103.832C200.38 103.832 199.786 104.197 199.234 104.926C198.682 105.645 198.349 106.462 198.234 107.379H198.687C199.823 107.379 200.713 107.166 201.359 106.739C202.005 106.301 202.328 105.728 202.328 105.02C202.328 104.686 202.224 104.405 202.016 104.176C201.807 103.947 201.474 103.832 201.016 103.832ZM126.031 145.754C126.031 148.379 125.135 150.442 123.344 151.942C121.562 153.431 119.12 154.176 116.016 154.176H114.672L113.109 161.754H107L111.828 138.91H117.656C120.354 138.91 122.422 139.504 123.859 140.692C125.307 141.869 126.031 143.556 126.031 145.754ZM115.766 149.176H116.75C117.698 149.176 118.463 148.874 119.047 148.27C119.63 147.655 119.922 146.879 119.922 145.942C119.922 145.327 119.734 144.832 119.359 144.457C118.984 144.082 118.469 143.895 117.812 143.895H116.891L115.766 149.176ZM135.25 157.207C135.771 157.207 136.266 156.905 136.734 156.301C137.213 155.686 137.594 154.869 137.875 153.848C138.156 152.827 138.297 151.827 138.297 150.848C138.297 150.171 138.193 149.629 137.984 149.223C137.776 148.806 137.453 148.598 137.016 148.598C136.224 148.598 135.505 149.259 134.859 150.582C134.224 151.895 133.906 153.358 133.906 154.973C133.906 156.462 134.354 157.207 135.25 157.207ZM141.75 161.754H136.922L137.078 159.832H136.953C136.37 160.645 135.74 161.223 135.062 161.567C134.385 161.9 133.62 162.067 132.766 162.067C131.12 162.067 129.87 161.489 129.016 160.332C128.161 159.166 127.734 157.494 127.734 155.317C127.734 153.452 128.115 151.551 128.875 149.614C129.635 147.676 130.594 146.212 131.75 145.223C132.917 144.233 134.203 143.739 135.609 143.739C136.484 143.739 137.255 143.936 137.922 144.332C138.588 144.718 139.182 145.353 139.703 146.239H139.828L140.656 144.051H145.5L141.75 161.754ZM152.266 161.754H146.219L149.953 144.051H156.031L152.266 161.754ZM150.687 140.16C150.687 139.087 150.995 138.275 151.609 137.723C152.234 137.171 153.104 136.895 154.219 136.895C155.167 136.895 155.896 137.087 156.406 137.473C156.927 137.848 157.187 138.39 157.187 139.098C157.187 140.14 156.885 140.947 156.281 141.52C155.677 142.082 154.807 142.364 153.672 142.364C151.682 142.364 150.687 141.629 150.687 140.16ZM170.344 143.739C170.927 143.739 171.344 143.78 171.594 143.864L170.281 149.848C169.719 149.619 169.078 149.504 168.359 149.504C167.286 149.504 166.427 149.874 165.781 150.614C165.146 151.343 164.661 152.462 164.328 153.973L162.672 161.754H156.625L160.359 144.051H165.187L164.906 147.004H165.031C165.708 145.837 166.443 145.004 167.234 144.504C168.026 143.994 169.062 143.739 170.344 143.739ZM178.578 162.067C176.37 162.067 174.651 161.452 173.422 160.223C172.193 158.983 171.578 157.265 171.578 155.067C171.578 152.869 172.01 150.89 172.875 149.129C173.75 147.358 174.943 146.02 176.453 145.114C177.974 144.197 179.729 143.739 181.719 143.739C183.698 143.739 185.255 144.186 186.391 145.082C187.526 145.978 188.094 147.171 188.094 148.66C188.094 150.754 187.276 152.364 185.641 153.489C184.016 154.603 181.661 155.16 178.578 155.16H177.656V155.41C177.656 156.952 178.51 157.723 180.219 157.723C181.042 157.723 181.849 157.603 182.641 157.364C183.432 157.114 184.333 156.723 185.344 156.192V160.473C184.177 161.067 183.088 161.483 182.078 161.723C181.068 161.952 179.901 162.067 178.578 162.067ZM181.047 147.832C180.411 147.832 179.818 148.197 179.266 148.926C178.713 149.645 178.38 150.462 178.266 151.379H178.719C179.854 151.379 180.745 151.166 181.391 150.739C182.036 150.301 182.359 149.728 182.359 149.02C182.359 148.686 182.255 148.405 182.047 148.176C181.838 147.947 181.505 147.832 181.047 147.832ZM197.953 143.739C198.734 143.739 199.391 143.9 199.922 144.223C200.453 144.535 201.031 145.166 201.656 146.114H201.781L201.812 145.535C201.885 144.098 202.016 142.968 202.203 142.145L203.172 137.442H209.281L204.125 161.754H199.297L199.453 159.832H199.328C198.734 160.655 198.109 161.233 197.453 161.567C196.797 161.9 196.026 162.067 195.141 162.067C193.495 162.067 192.245 161.489 191.391 160.332C190.536 159.166 190.109 157.494 190.109 155.317C190.109 153.462 190.479 151.572 191.219 149.645C191.969 147.718 192.927 146.254 194.094 145.254C195.26 144.244 196.547 143.739 197.953 143.739ZM197.625 157.207C198.146 157.207 198.641 156.905 199.109 156.301C199.588 155.686 199.969 154.869 200.25 153.848C200.531 152.827 200.672 151.827 200.672 150.848C200.672 149.348 200.255 148.598 199.422 148.598C198.911 148.598 198.411 148.905 197.922 149.52C197.432 150.134 197.036 150.947 196.734 151.957C196.432 152.957 196.281 153.962 196.281 154.973C196.281 156.462 196.729 157.207 197.625 157.207Z" fill="black"/>
</g>
<defs>
<filter id="filter0_d" x="0" y="0" width="313.433" height="240.691" filterUnits="userSpaceOnUse" color-interpolation-filters="sRGB">
<feFlood flood-opacity="0" result="BackgroundImageFix"/>
<feColorMatrix in="SourceAlpha" type="matrix" values="0 0 0 0 0 0 0 0 0 0 0 0 0 0 0 0 0 0 127 0"/>
<feOffset dy="4"/>
<feGaussianBlur stdDeviation="2"/>
<feColorMatrix type="matrix" values="0 0 0 0 0 0 0 0 0 0 0 0 0 0 0 0 0 0 1 0"/>
<feBlend mode="normal" in2="BackgroundImageFix" result="effect1_dropShadow"/>
<feBlend mode="normal" in="SourceGraphic" in2="effect1_dropShadow" result="shape"/>
</filter>
</defs>
</svg>
