<svg width="252" height="56" viewBox="0 0 252 56" fill="none" xmlns="http://www.w3.org/2000/svg">
<g filter="url(#filter0_d)">
<rect x="4" width="244" height="47.5808" rx="23.7904" fill="#F2F2F2"/>
<path d="M118.764 24.7158H116.35V19.7861H111.826V24.7158H109.404V13.2939H111.826V17.7705H116.35V13.2939H118.764V24.7158ZM125.084 17.5127C124.579 17.5127 124.183 17.6742 123.897 17.9971C123.61 18.3148 123.446 18.7679 123.404 19.3564H126.748C126.738 18.7679 126.584 18.3148 126.287 17.9971C125.99 17.6742 125.589 17.5127 125.084 17.5127ZM125.42 24.8721C124.014 24.8721 122.915 24.484 122.123 23.708C121.332 22.932 120.936 21.833 120.936 20.4111C120.936 18.9476 121.3 17.8174 122.029 17.0205C122.764 16.2184 123.777 15.8174 125.069 15.8174C126.303 15.8174 127.264 16.1689 127.951 16.8721C128.639 17.5752 128.983 18.5465 128.983 19.7861V20.9424H123.35C123.376 21.6195 123.576 22.1481 123.951 22.5283C124.326 22.9085 124.852 23.0986 125.529 23.0986C126.055 23.0986 126.553 23.0439 127.022 22.9346C127.49 22.8252 127.98 22.6507 128.49 22.4111V24.2549C128.074 24.4632 127.628 24.6169 127.154 24.7158C126.68 24.82 126.102 24.8721 125.42 24.8721ZM133.303 24.7158H130.92V12.5596H133.303V24.7158ZM140.608 24.8721C139.582 24.8721 138.777 24.4997 138.194 23.7549H138.069C138.152 24.484 138.194 24.9059 138.194 25.0205V28.5596H135.811V15.9814H137.748L138.084 17.1143H138.194C138.751 16.2497 139.576 15.8174 140.67 15.8174C141.701 15.8174 142.509 16.2158 143.092 17.0127C143.675 17.8096 143.967 18.9163 143.967 20.333C143.967 21.2653 143.829 22.0752 143.553 22.7627C143.282 23.4502 142.894 23.9736 142.389 24.333C141.884 24.6924 141.29 24.8721 140.608 24.8721ZM139.904 17.7236C139.316 17.7236 138.886 17.9059 138.615 18.2705C138.345 18.6299 138.204 19.2262 138.194 20.0596V20.3174C138.194 21.2549 138.332 21.9268 138.608 22.333C138.889 22.7393 139.332 22.9424 139.936 22.9424C141.003 22.9424 141.537 22.0622 141.537 20.3018C141.537 19.4424 141.404 18.7992 141.139 18.3721C140.878 17.9398 140.467 17.7236 139.904 17.7236Z" fill="black"/>
</g>
<defs>
<filter id="filter0_d" x="0" y="0" width="252" height="55.5808" filterUnits="userSpaceOnUse" color-interpolation-filters="sRGB">
<feFlood flood-opacity="0" result="BackgroundImageFix"/>
<feColorMatrix in="SourceAlpha" type="matrix" values="0 0 0 0 0 0 0 0 0 0 0 0 0 0 0 0 0 0 127 0"/>
<feOffset dy="4"/>
<feGaussianBlur stdDeviation="2"/>
<feColorMatrix type="matrix" values="0 0 0 0 0 0 0 0 0 0 0 0 0 0 0 0 0 0 0.25 0"/>
<feBlend mode="normal" in2="BackgroundImageFix" result="effect1_dropShadow"/>
<feBlend mode="normal" in="SourceGraphic" in2="effect1_dropShadow" result="shape"/>
</filter>
</defs>
</svg>
