<svg width="251" height="49" viewBox="0 0 251 49" fill="none" xmlns="http://www.w3.org/2000/svg">
<g filter="url(#filter0_d)">
<rect x="4" width="243" height="40.6452" rx="20.3226" fill="#F2F2F2"/>
<path d="M69.3438 17.9531H70.1406C70.8854 17.9531 71.4427 17.8073 71.8125 17.5156C72.1823 17.2188 72.3672 16.7891 72.3672 16.2266C72.3672 15.6589 72.2109 15.2396 71.8984 14.9688C71.5911 14.6979 71.1068 14.5625 70.4453 14.5625H69.3438V17.9531ZM74.8125 16.1406C74.8125 17.3698 74.4271 18.3099 73.6562 18.9609C72.8906 19.612 71.7995 19.9375 70.3828 19.9375H69.3438V24H66.9219V12.5781H70.5703C71.9557 12.5781 73.0078 12.8776 73.7266 13.4766C74.4505 14.0703 74.8125 14.9583 74.8125 16.1406ZM82.3281 24L81.8672 22.8125H81.8047C81.4036 23.3177 80.9896 23.6693 80.5625 23.8672C80.1406 24.0599 79.5885 24.1562 78.9062 24.1562C78.0677 24.1562 77.4062 23.9167 76.9219 23.4375C76.4427 22.9583 76.2031 22.276 76.2031 21.3906C76.2031 20.4635 76.526 19.7812 77.1719 19.3438C77.8229 18.901 78.8021 18.6562 80.1094 18.6094L81.625 18.5625V18.1797C81.625 17.2943 81.1719 16.8516 80.2656 16.8516C79.5677 16.8516 78.7474 17.0625 77.8047 17.4844L77.0156 15.875C78.0208 15.349 79.1354 15.0859 80.3594 15.0859C81.5312 15.0859 82.4297 15.3411 83.0547 15.8516C83.6797 16.362 83.9922 17.138 83.9922 18.1797V24H82.3281ZM81.625 19.9531L80.7031 19.9844C80.0104 20.0052 79.4948 20.1302 79.1562 20.3594C78.8177 20.5885 78.6484 20.9375 78.6484 21.4062C78.6484 22.0781 79.0339 22.4141 79.8047 22.4141C80.3568 22.4141 80.7969 22.2552 81.125 21.9375C81.4583 21.6198 81.625 21.1979 81.625 20.6719V19.9531ZM86.3516 13.0078C86.3516 12.2318 86.7839 11.8438 87.6484 11.8438C88.513 11.8438 88.9453 12.2318 88.9453 13.0078C88.9453 13.3776 88.8359 13.6667 88.6172 13.875C88.4036 14.0781 88.0807 14.1797 87.6484 14.1797C86.7839 14.1797 86.3516 13.7891 86.3516 13.0078ZM88.8359 24H86.4531V15.2656H88.8359V24ZM96.2188 15.1016C96.5417 15.1016 96.8099 15.125 97.0234 15.1719L96.8438 17.4062C96.651 17.3542 96.4167 17.3281 96.1406 17.3281C95.3802 17.3281 94.7865 17.5234 94.3594 17.9141C93.9375 18.3047 93.7266 18.8516 93.7266 19.5547V24H91.3438V15.2656H93.1484L93.5 16.7344H93.6172C93.888 16.2448 94.2526 15.8516 94.7109 15.5547C95.1745 15.2526 95.6771 15.1016 96.2188 15.1016ZM97.8359 20.6875V18.7344H102.031V20.6875H97.8359ZM107.445 22.2578C107.862 22.2578 108.362 22.1667 108.945 21.9844V23.7578C108.352 24.0234 107.622 24.1562 106.758 24.1562C105.805 24.1562 105.109 23.9167 104.672 23.4375C104.24 22.9531 104.023 22.2292 104.023 21.2656V17.0547H102.883V16.0469L104.195 15.25L104.883 13.4062H106.406V15.2656H108.852V17.0547H106.406V21.2656C106.406 21.6042 106.5 21.8542 106.688 22.0156C106.88 22.1771 107.133 22.2578 107.445 22.2578ZM112.617 19.6172C112.617 20.4818 112.758 21.1354 113.039 21.5781C113.326 22.0208 113.789 22.2422 114.43 22.2422C115.065 22.2422 115.521 22.0234 115.797 21.5859C116.078 21.1432 116.219 20.487 116.219 19.6172C116.219 18.7526 116.078 18.1042 115.797 17.6719C115.516 17.2396 115.055 17.0234 114.414 17.0234C113.779 17.0234 113.32 17.2396 113.039 17.6719C112.758 18.099 112.617 18.7474 112.617 19.6172ZM118.656 19.6172C118.656 21.0391 118.281 22.151 117.531 22.9531C116.781 23.7552 115.737 24.1562 114.398 24.1562C113.56 24.1562 112.82 23.974 112.18 23.6094C111.539 23.2396 111.047 22.7109 110.703 22.0234C110.359 21.3359 110.188 20.5339 110.188 19.6172C110.188 18.1901 110.56 17.0807 111.305 16.2891C112.049 15.4974 113.096 15.1016 114.445 15.1016C115.284 15.1016 116.023 15.2839 116.664 15.6484C117.305 16.013 117.797 16.5365 118.141 17.2188C118.484 17.901 118.656 18.7005 118.656 19.6172ZM119.852 20.6875V18.7344H124.047V20.6875H119.852ZM135.445 18.1797C135.445 20.0599 134.909 21.5 133.836 22.5C132.768 23.5 131.224 24 129.203 24H125.969V12.5781H129.555C131.419 12.5781 132.867 13.0703 133.898 14.0547C134.93 15.0391 135.445 16.4141 135.445 18.1797ZM132.93 18.2422C132.93 15.7891 131.846 14.5625 129.68 14.5625H128.391V22H129.43C131.763 22 132.93 20.7474 132.93 18.2422ZM141.242 16.7969C140.737 16.7969 140.341 16.9583 140.055 17.2812C139.768 17.599 139.604 18.0521 139.562 18.6406H142.906C142.896 18.0521 142.742 17.599 142.445 17.2812C142.148 16.9583 141.747 16.7969 141.242 16.7969ZM141.578 24.1562C140.172 24.1562 139.073 23.7682 138.281 22.9922C137.49 22.2161 137.094 21.1172 137.094 19.6953C137.094 18.2318 137.458 17.1016 138.188 16.3047C138.922 15.5026 139.935 15.1016 141.227 15.1016C142.461 15.1016 143.422 15.4531 144.109 16.1562C144.797 16.8594 145.141 17.8307 145.141 19.0703V20.2266H139.508C139.534 20.9036 139.734 21.4323 140.109 21.8125C140.484 22.1927 141.01 22.3828 141.688 22.3828C142.214 22.3828 142.711 22.3281 143.18 22.2188C143.648 22.1094 144.138 21.9349 144.648 21.6953V23.5391C144.232 23.7474 143.786 23.901 143.312 24C142.839 24.1042 142.26 24.1562 141.578 24.1562ZM149.156 24L145.828 15.2656H148.32L150.008 20.2422C150.195 20.8724 150.312 21.4688 150.359 22.0312H150.406C150.432 21.5312 150.549 20.9349 150.758 20.2422L152.438 15.2656H154.93L151.602 24H149.156ZM156.086 13.0078C156.086 12.2318 156.518 11.8438 157.383 11.8438C158.247 11.8438 158.68 12.2318 158.68 13.0078C158.68 13.3776 158.57 13.6667 158.352 13.875C158.138 14.0781 157.815 14.1797 157.383 14.1797C156.518 14.1797 156.086 13.7891 156.086 13.0078ZM158.57 24H156.188V15.2656H158.57V24ZM164.625 24.1562C161.906 24.1562 160.547 22.6641 160.547 19.6797C160.547 18.1953 160.917 17.0625 161.656 16.2812C162.396 15.4948 163.456 15.1016 164.836 15.1016C165.846 15.1016 166.753 15.2995 167.555 15.6953L166.852 17.5391C166.477 17.388 166.128 17.2656 165.805 17.1719C165.482 17.0729 165.159 17.0234 164.836 17.0234C163.596 17.0234 162.977 17.9036 162.977 19.6641C162.977 21.3724 163.596 22.2266 164.836 22.2266C165.294 22.2266 165.719 22.1667 166.109 22.0469C166.5 21.9219 166.891 21.7292 167.281 21.4688V23.5078C166.896 23.7526 166.505 23.9219 166.109 24.0156C165.719 24.1094 165.224 24.1562 164.625 24.1562ZM172.93 16.7969C172.424 16.7969 172.029 16.9583 171.742 17.2812C171.456 17.599 171.292 18.0521 171.25 18.6406H174.594C174.583 18.0521 174.43 17.599 174.133 17.2812C173.836 16.9583 173.435 16.7969 172.93 16.7969ZM173.266 24.1562C171.859 24.1562 170.76 23.7682 169.969 22.9922C169.177 22.2161 168.781 21.1172 168.781 19.6953C168.781 18.2318 169.146 17.1016 169.875 16.3047C170.609 15.5026 171.622 15.1016 172.914 15.1016C174.148 15.1016 175.109 15.4531 175.797 16.1562C176.484 16.8594 176.828 17.8307 176.828 19.0703V20.2266H171.195C171.221 20.9036 171.422 21.4323 171.797 21.8125C172.172 22.1927 172.698 22.3828 173.375 22.3828C173.901 22.3828 174.398 22.3281 174.867 22.2188C175.336 22.1094 175.826 21.9349 176.336 21.6953V23.5391C175.919 23.7474 175.474 23.901 175 24C174.526 24.1042 173.948 24.1562 173.266 24.1562Z" fill="black"/>
</g>
<defs>
<filter id="filter0_d" x="0" y="0" width="251" height="48.6452" filterUnits="userSpaceOnUse" color-interpolation-filters="sRGB">
<feFlood flood-opacity="0" result="BackgroundImageFix"/>
<feColorMatrix in="SourceAlpha" type="matrix" values="0 0 0 0 0 0 0 0 0 0 0 0 0 0 0 0 0 0 127 0"/>
<feOffset dy="4"/>
<feGaussianBlur stdDeviation="2"/>
<feColorMatrix type="matrix" values="0 0 0 0 0 0 0 0 0 0 0 0 0 0 0 0 0 0 0.25 0"/>
<feBlend mode="normal" in2="BackgroundImageFix" result="effect1_dropShadow"/>
<feBlend mode="normal" in="SourceGraphic" in2="effect1_dropShadow" result="shape"/>
</filter>
</defs>
</svg>
