<svg width="314" height="241" viewBox="0 0 314 241" fill="none" xmlns="http://www.w3.org/2000/svg">
<g filter="url(#filter0_d)">
<path d="M21.8125 6.75429C75.8125 56.7541 253.298 9.50712 295.298 32.5071C337.297 55.5071 269.812 77.0012 295.298 180.754C320.783 284.507 53.8124 200.754 53.8124 200.754C53.8124 200.754 -32.1875 -43.2455 21.8125 6.75429Z" fill="#C4C4C4"/>
<path d="M100.859 56C100.859 58.625 99.9635 60.6875 98.1719 62.1875C96.3906 63.6771 93.9479 64.4219 90.8438 64.4219H89.5L87.9375 72H81.8281L86.6562 49.1562H92.4844C95.1823 49.1562 97.25 49.75 98.6875 50.9375C100.135 52.1146 100.859 53.8021 100.859 56ZM90.5938 59.4219H91.5781C92.526 59.4219 93.2917 59.1198 93.875 58.5156C94.4583 57.901 94.75 57.125 94.75 56.1875C94.75 55.5729 94.5625 55.0781 94.1875 54.7031C93.8125 54.3281 93.2969 54.1406 92.6406 54.1406H91.7188L90.5938 59.4219ZM110.078 67.4531C110.599 67.4531 111.094 67.151 111.562 66.5469C112.042 65.9323 112.422 65.1146 112.703 64.0938C112.984 63.0729 113.125 62.0729 113.125 61.0938C113.125 60.4167 113.021 59.875 112.812 59.4688C112.604 59.0521 112.281 58.8438 111.844 58.8438C111.052 58.8438 110.333 59.5052 109.688 60.8281C109.052 62.1406 108.734 63.6042 108.734 65.2188C108.734 66.7083 109.182 67.4531 110.078 67.4531ZM116.578 72H111.75L111.906 70.0781H111.781C111.198 70.8906 110.568 71.4688 109.891 71.8125C109.214 72.1458 108.448 72.3125 107.594 72.3125C105.948 72.3125 104.698 71.7344 103.844 70.5781C102.99 69.4115 102.562 67.7396 102.562 65.5625C102.562 63.6979 102.943 61.7969 103.703 59.8594C104.464 57.9219 105.422 56.4583 106.578 55.4688C107.745 54.4792 109.031 53.9844 110.438 53.9844C111.312 53.9844 112.083 54.1823 112.75 54.5781C113.417 54.9635 114.01 55.599 114.531 56.4844H114.656L115.484 54.2969H120.328L116.578 72ZM127.094 72H121.047L124.781 54.2969H130.859L127.094 72ZM125.516 50.4062C125.516 49.3333 125.823 48.5208 126.438 47.9688C127.062 47.4167 127.932 47.1406 129.047 47.1406C129.995 47.1406 130.724 47.3333 131.234 47.7188C131.755 48.0938 132.016 48.6354 132.016 49.3438C132.016 50.3854 131.714 51.1927 131.109 51.7656C130.505 52.3281 129.635 52.6094 128.5 52.6094C126.51 52.6094 125.516 51.875 125.516 50.4062ZM145.172 53.9844C145.755 53.9844 146.172 54.026 146.422 54.1094L145.109 60.0938C144.547 59.8646 143.906 59.75 143.188 59.75C142.115 59.75 141.255 60.1198 140.609 60.8594C139.974 61.5885 139.49 62.7083 139.156 64.2188L137.5 72H131.453L135.188 54.2969H140.016L139.734 57.25H139.859C140.536 56.0833 141.271 55.25 142.062 54.75C142.854 54.2396 143.891 53.9844 145.172 53.9844ZM151.5 72H145.453L149.188 54.2969H155.266L151.5 72ZM149.922 50.4062C149.922 49.3333 150.229 48.5208 150.844 47.9688C151.469 47.4167 152.339 47.1406 153.453 47.1406C154.401 47.1406 155.13 47.3333 155.641 47.7188C156.161 48.0938 156.422 48.6354 156.422 49.3438C156.422 50.3854 156.12 51.1927 155.516 51.7656C154.911 52.3281 154.042 52.6094 152.906 52.6094C150.917 52.6094 149.922 51.875 149.922 50.4062ZM167.781 60.125C167.781 59.6771 167.667 59.3438 167.438 59.125C167.208 58.8958 166.932 58.7812 166.609 58.7812C166.016 58.7812 165.464 59.151 164.953 59.8906C164.453 60.6302 164.042 61.7865 163.719 63.3594L161.906 72H155.859L159.594 54.2969H164.422L164.234 56.7656H164.359C164.932 55.776 165.604 55.0677 166.375 54.6406C167.156 54.2031 168.109 53.9844 169.234 53.9844C170.703 53.9844 171.849 54.4323 172.672 55.3281C173.495 56.2135 173.906 57.4427 173.906 59.0156C173.906 60.1198 173.776 61.3125 173.516 62.5938L171.531 72H165.484L167.5 62.3438C167.688 61.5312 167.781 60.7917 167.781 60.125ZM194.703 54.2969L194.062 57.5312L191.562 58.3438C191.667 58.7604 191.719 59.25 191.719 59.8125C191.719 61.8021 191.042 63.4115 189.688 64.6406C188.333 65.8594 186.568 66.4688 184.391 66.4688C183.599 66.4688 182.953 66.401 182.453 66.2656C182.245 66.3802 182.068 66.4948 181.922 66.6094C181.776 66.724 181.703 66.8802 181.703 67.0781C181.703 67.526 182.281 67.8333 183.438 68L185.578 68.2812C187.391 68.5417 188.693 69.0208 189.484 69.7188C190.276 70.4062 190.672 71.3906 190.672 72.6719C190.672 74.9115 189.792 76.6406 188.031 77.8594C186.281 79.0781 183.792 79.6875 180.562 79.6875C178.354 79.6875 176.599 79.2917 175.297 78.5C173.984 77.7188 173.328 76.6302 173.328 75.2344C173.328 74.2135 173.682 73.3333 174.391 72.5938C175.099 71.8542 176.203 71.2396 177.703 70.75C177.318 70.5104 177 70.1979 176.75 69.8125C176.51 69.4271 176.391 69.0156 176.391 68.5781C176.391 67.8385 176.656 67.1823 177.188 66.6094C177.719 66.0365 178.51 65.5104 179.562 65.0312C178.198 63.9583 177.516 62.4948 177.516 60.6406C177.516 58.599 178.224 56.9792 179.641 55.7812C181.057 54.5833 182.974 53.9844 185.391 53.9844C185.922 53.9844 186.479 54.0156 187.062 54.0781C187.656 54.1406 188.125 54.2135 188.469 54.2969H194.703ZM178.484 74.375C178.484 75.2708 179.37 75.7188 181.141 75.7188C182.443 75.7188 183.432 75.5677 184.109 75.2656C184.797 74.9635 185.141 74.5365 185.141 73.9844C185.141 73.6094 184.969 73.3229 184.625 73.125C184.281 72.9375 183.682 72.7969 182.828 72.7031L181.031 72.5156C180.219 72.6302 179.589 72.8438 179.141 73.1562C178.703 73.4792 178.484 73.8854 178.484 74.375ZM183.219 61.1875C183.219 62.1667 183.568 62.6562 184.266 62.6562C184.807 62.6562 185.25 62.3021 185.594 61.5938C185.948 60.875 186.125 60.0469 186.125 59.1094C186.125 58.1198 185.807 57.625 185.172 57.625C184.776 57.625 184.432 57.8021 184.141 58.1562C183.849 58.5 183.62 58.9531 183.453 59.5156C183.297 60.0781 183.219 60.6354 183.219 61.1875ZM210.484 67.4531C211.172 67.4531 212.125 67.2083 213.344 66.7188V71.2656C211.927 71.9635 210.156 72.3125 208.031 72.3125C206.49 72.3125 205.318 71.9844 204.516 71.3281C203.724 70.6615 203.328 69.5729 203.328 68.0625C203.328 67.2708 203.453 66.2917 203.703 65.125L205.016 58.8438H202.609L203.25 55.875L206.656 54.5L208.797 50.75H212.828L212.062 54.2969H216.562L215.578 58.8438H211.062L209.75 64.8281C209.583 65.6302 209.5 66.1771 209.5 66.4688C209.5 67.125 209.828 67.4531 210.484 67.4531ZM224.375 72.3125C222.198 72.3125 220.516 71.724 219.328 70.5469C218.151 69.3698 217.562 67.6875 217.562 65.5C217.562 63.3125 217.974 61.3385 218.797 59.5781C219.63 57.8073 220.797 56.4323 222.297 55.4531C223.797 54.474 225.547 53.9844 227.547 53.9844C229.724 53.9844 231.401 54.5729 232.578 55.75C233.766 56.9271 234.359 58.6094 234.359 60.7969C234.359 62.9844 233.943 64.9635 233.109 66.7344C232.286 68.4948 231.125 69.8646 229.625 70.8438C228.125 71.8229 226.375 72.3125 224.375 72.3125ZM226.844 58.5312C225.99 58.5312 225.255 59.2604 224.641 60.7188C224.036 62.1667 223.734 63.8281 223.734 65.7031C223.734 67.0885 224.172 67.7812 225.047 67.7812C225.891 67.7812 226.625 67.0573 227.25 65.6094C227.875 64.1615 228.188 62.4948 228.188 60.6094C228.188 59.9219 228.068 59.4062 227.828 59.0625C227.589 58.7083 227.26 58.5312 226.844 58.5312ZM112.578 97.9844C113.359 97.9844 114.016 98.1458 114.547 98.4688C115.078 98.7812 115.656 99.4115 116.281 100.359H116.406L116.438 99.7812C116.51 98.3438 116.641 97.2135 116.828 96.3906L117.797 91.6875H123.906L118.75 116H113.922L114.078 114.078H113.953C113.359 114.901 112.734 115.479 112.078 115.812C111.422 116.146 110.651 116.312 109.766 116.312C108.12 116.312 106.87 115.734 106.016 114.578C105.161 113.411 104.734 111.74 104.734 109.562C104.734 107.708 105.104 105.818 105.844 103.891C106.594 101.964 107.552 100.5 108.719 99.5C109.885 98.4896 111.172 97.9844 112.578 97.9844ZM112.25 111.453C112.771 111.453 113.266 111.151 113.734 110.547C114.214 109.932 114.594 109.115 114.875 108.094C115.156 107.073 115.297 106.073 115.297 105.094C115.297 103.594 114.88 102.844 114.047 102.844C113.536 102.844 113.036 103.151 112.547 103.766C112.057 104.38 111.661 105.193 111.359 106.203C111.057 107.203 110.906 108.208 110.906 109.219C110.906 110.708 111.354 111.453 112.25 111.453ZM131.078 116.312C128.87 116.312 127.151 115.698 125.922 114.469C124.693 113.229 124.078 111.51 124.078 109.312C124.078 107.115 124.51 105.135 125.375 103.375C126.25 101.604 127.443 100.266 128.953 99.3594C130.474 98.4427 132.229 97.9844 134.219 97.9844C136.198 97.9844 137.755 98.4323 138.891 99.3281C140.026 100.224 140.594 101.417 140.594 102.906C140.594 105 139.776 106.609 138.141 107.734C136.516 108.849 134.161 109.406 131.078 109.406H130.156V109.656C130.156 111.198 131.01 111.969 132.719 111.969C133.542 111.969 134.349 111.849 135.141 111.609C135.932 111.359 136.833 110.969 137.844 110.438V114.719C136.677 115.312 135.589 115.729 134.578 115.969C133.568 116.198 132.401 116.312 131.078 116.312ZM133.547 102.078C132.911 102.078 132.318 102.443 131.766 103.172C131.214 103.891 130.88 104.708 130.766 105.625H131.219C132.354 105.625 133.245 105.411 133.891 104.984C134.536 104.547 134.859 103.974 134.859 103.266C134.859 102.932 134.755 102.651 134.547 102.422C134.339 102.193 134.005 102.078 133.547 102.078ZM144.938 116L142.672 98.2969H148.688L149.109 107.719C149.109 108.479 149.068 109.094 148.984 109.562H149.109C149.12 109.417 149.214 109.089 149.391 108.578C149.568 108.068 149.755 107.599 149.953 107.172C150.151 106.745 151.531 103.786 154.094 98.2969H160.562L151 116H144.938ZM165.109 116H159.062L162.797 98.2969H168.875L165.109 116ZM163.531 94.4062C163.531 93.3333 163.839 92.5208 164.453 91.9688C165.078 91.4167 165.948 91.1406 167.062 91.1406C168.01 91.1406 168.74 91.3333 169.25 91.7188C169.771 92.0938 170.031 92.6354 170.031 93.3438C170.031 94.3854 169.729 95.1927 169.125 95.7656C168.521 96.3281 167.651 96.6094 166.516 96.6094C164.526 96.6094 163.531 95.875 163.531 94.4062ZM177.016 116.312C174.943 116.312 173.323 115.688 172.156 114.438C171 113.177 170.422 111.396 170.422 109.094C170.422 107 170.818 105.104 171.609 103.406C172.411 101.698 173.531 100.37 174.969 99.4219C176.417 98.4635 178.057 97.9844 179.891 97.9844C181.922 97.9844 183.833 98.401 185.625 99.2344L183.703 103.719C182.318 103.094 181.146 102.781 180.188 102.781C179.542 102.781 178.943 103.031 178.391 103.531C177.839 104.031 177.385 104.781 177.031 105.781C176.677 106.771 176.5 107.745 176.5 108.703C176.5 109.651 176.656 110.349 176.969 110.797C177.281 111.234 177.776 111.453 178.453 111.453C179.203 111.453 179.927 111.333 180.625 111.094C181.333 110.854 182.083 110.526 182.875 110.109V114.906C182.042 115.365 181.161 115.714 180.234 115.953C179.318 116.193 178.245 116.312 177.016 116.312ZM193.547 116.312C191.339 116.312 189.62 115.698 188.391 114.469C187.161 113.229 186.547 111.51 186.547 109.312C186.547 107.115 186.979 105.135 187.844 103.375C188.719 101.604 189.911 100.266 191.422 99.3594C192.943 98.4427 194.698 97.9844 196.688 97.9844C198.667 97.9844 200.224 98.4323 201.359 99.3281C202.495 100.224 203.062 101.417 203.062 102.906C203.062 105 202.245 106.609 200.609 107.734C198.984 108.849 196.63 109.406 193.547 109.406H192.625V109.656C192.625 111.198 193.479 111.969 195.188 111.969C196.01 111.969 196.818 111.849 197.609 111.609C198.401 111.359 199.302 110.969 200.312 110.438V114.719C199.146 115.312 198.057 115.729 197.047 115.969C196.036 116.198 194.87 116.312 193.547 116.312ZM196.016 102.078C195.38 102.078 194.786 102.443 194.234 103.172C193.682 103.891 193.349 104.708 193.234 105.625H193.688C194.823 105.625 195.714 105.411 196.359 104.984C197.005 104.547 197.328 103.974 197.328 103.266C197.328 102.932 197.224 102.651 197.016 102.422C196.807 102.193 196.474 102.078 196.016 102.078ZM210.516 112.281L210.641 112.641C209.432 115.37 208.099 117.865 206.641 120.125H202.141C202.693 118.865 203.458 116.849 204.438 114.078L205.078 112.281H210.516ZM117.469 160.312C115.979 160.312 114.776 159.557 113.859 158.047H113.734C113.609 159.776 113.318 161.708 112.859 163.844L112.062 167.688H106.016L111.391 142.297H116.219L116.031 144.281H116.156C117.156 142.75 118.5 141.984 120.188 141.984C121.812 141.984 123.089 142.568 124.016 143.734C124.943 144.891 125.406 146.484 125.406 148.516C125.406 150.63 125.042 152.625 124.312 154.5C123.583 156.365 122.615 157.802 121.406 158.812C120.208 159.812 118.896 160.312 117.469 160.312ZM117.891 146.844C117.37 146.844 116.875 147.141 116.406 147.734C115.938 148.328 115.562 149.13 115.281 150.141C115.01 151.151 114.875 152.177 114.875 153.219C114.875 153.896 114.995 154.438 115.234 154.844C115.474 155.25 115.812 155.453 116.25 155.453C116.75 155.453 117.229 155.156 117.688 154.562C118.146 153.969 118.516 153.172 118.797 152.172C119.089 151.172 119.234 150.146 119.234 149.094C119.234 147.594 118.786 146.844 117.891 146.844ZM133.141 160H127.094L132.234 135.688H138.281L133.141 160ZM145.453 160.312C143.245 160.312 141.526 159.698 140.297 158.469C139.068 157.229 138.453 155.51 138.453 153.312C138.453 151.115 138.885 149.135 139.75 147.375C140.625 145.604 141.818 144.266 143.328 143.359C144.849 142.443 146.604 141.984 148.594 141.984C150.573 141.984 152.13 142.432 153.266 143.328C154.401 144.224 154.969 145.417 154.969 146.906C154.969 149 154.151 150.609 152.516 151.734C150.891 152.849 148.536 153.406 145.453 153.406H144.531V153.656C144.531 155.198 145.385 155.969 147.094 155.969C147.917 155.969 148.724 155.849 149.516 155.609C150.307 155.359 151.208 154.969 152.219 154.438V158.719C151.052 159.312 149.964 159.729 148.953 159.969C147.943 160.198 146.776 160.312 145.453 160.312ZM147.922 146.078C147.286 146.078 146.693 146.443 146.141 147.172C145.589 147.891 145.255 148.708 145.141 149.625H145.594C146.729 149.625 147.62 149.411 148.266 148.984C148.911 148.547 149.234 147.974 149.234 147.266C149.234 146.932 149.13 146.651 148.922 146.422C148.714 146.193 148.38 146.078 147.922 146.078ZM164.5 155.453C165.021 155.453 165.516 155.151 165.984 154.547C166.464 153.932 166.844 153.115 167.125 152.094C167.406 151.073 167.547 150.073 167.547 149.094C167.547 148.417 167.443 147.875 167.234 147.469C167.026 147.052 166.703 146.844 166.266 146.844C165.474 146.844 164.755 147.505 164.109 148.828C163.474 150.141 163.156 151.604 163.156 153.219C163.156 154.708 163.604 155.453 164.5 155.453ZM171 160H166.172L166.328 158.078H166.203C165.62 158.891 164.99 159.469 164.312 159.812C163.635 160.146 162.87 160.312 162.016 160.312C160.37 160.312 159.12 159.734 158.266 158.578C157.411 157.411 156.984 155.74 156.984 153.562C156.984 151.698 157.365 149.797 158.125 147.859C158.885 145.922 159.844 144.458 161 143.469C162.167 142.479 163.453 141.984 164.859 141.984C165.734 141.984 166.505 142.182 167.172 142.578C167.839 142.964 168.432 143.599 168.953 144.484H169.078L169.906 142.297H174.75L171 160ZM189.031 153.859C189.031 155.932 188.354 157.526 187 158.641C185.646 159.755 183.698 160.312 181.156 160.312C178.844 160.312 176.99 159.984 175.594 159.328V154.469C176.552 154.99 177.443 155.354 178.266 155.562C179.089 155.771 179.922 155.875 180.766 155.875C181.474 155.875 182.005 155.781 182.359 155.594C182.714 155.396 182.891 155.125 182.891 154.781C182.891 154.417 182.755 154.104 182.484 153.844C182.214 153.573 181.536 153.13 180.453 152.516C179.349 151.911 178.542 151.219 178.031 150.438C177.531 149.656 177.281 148.703 177.281 147.578C177.281 145.786 177.911 144.406 179.172 143.438C180.432 142.469 182.224 141.984 184.547 141.984C185.714 141.984 186.776 142.12 187.734 142.391C188.693 142.661 189.625 143.078 190.531 143.641L188.641 147.578C187.953 147.13 187.24 146.776 186.5 146.516C185.771 146.245 185.141 146.109 184.609 146.109C183.818 146.109 183.422 146.464 183.422 147.172C183.422 147.474 183.583 147.74 183.906 147.969C184.24 148.198 184.776 148.495 185.516 148.859C187.859 150.026 189.031 151.693 189.031 153.859ZM199.484 160.312C197.276 160.312 195.557 159.698 194.328 158.469C193.099 157.229 192.484 155.51 192.484 153.312C192.484 151.115 192.917 149.135 193.781 147.375C194.656 145.604 195.849 144.266 197.359 143.359C198.88 142.443 200.635 141.984 202.625 141.984C204.604 141.984 206.161 142.432 207.297 143.328C208.432 144.224 209 145.417 209 146.906C209 149 208.182 150.609 206.547 151.734C204.922 152.849 202.568 153.406 199.484 153.406H198.562V153.656C198.562 155.198 199.417 155.969 201.125 155.969C201.948 155.969 202.755 155.849 203.547 155.609C204.339 155.359 205.24 154.969 206.25 154.438V158.719C205.083 159.312 203.995 159.729 202.984 159.969C201.974 160.198 200.807 160.312 199.484 160.312ZM201.953 146.078C201.318 146.078 200.724 146.443 200.172 147.172C199.62 147.891 199.286 148.708 199.172 149.625H199.625C200.76 149.625 201.651 149.411 202.297 148.984C202.943 148.547 203.266 147.974 203.266 147.266C203.266 146.932 203.161 146.651 202.953 146.422C202.745 146.193 202.411 146.078 201.953 146.078ZM121.5 204L121.812 196.984C121.833 196.224 121.891 195.135 121.984 193.719C122.089 192.302 122.203 191.161 122.328 190.297H122.203C121.578 192.724 120.948 194.755 120.312 196.391L117.359 204H111L109.969 186.297H115.672V194.297C115.672 196.193 115.63 197.542 115.547 198.344H115.672C116.151 196.5 116.609 194.964 117.047 193.734L119.734 186.297H126.422L126.109 193.734C126.016 195.078 125.844 196.615 125.594 198.344H125.719C125.792 198.115 125.87 197.87 125.953 197.609C126.047 197.339 126.302 196.609 126.719 195.422C127.135 194.224 128.391 191.182 130.484 186.297H136.5L128.094 204H121.5ZM143.547 199.453C144.068 199.453 144.562 199.151 145.031 198.547C145.51 197.932 145.891 197.115 146.172 196.094C146.453 195.073 146.594 194.073 146.594 193.094C146.594 192.417 146.49 191.875 146.281 191.469C146.073 191.052 145.75 190.844 145.312 190.844C144.521 190.844 143.802 191.505 143.156 192.828C142.521 194.141 142.203 195.604 142.203 197.219C142.203 198.708 142.651 199.453 143.547 199.453ZM150.047 204H145.219L145.375 202.078H145.25C144.667 202.891 144.036 203.469 143.359 203.812C142.682 204.146 141.917 204.312 141.062 204.312C139.417 204.312 138.167 203.734 137.312 202.578C136.458 201.411 136.031 199.74 136.031 197.562C136.031 195.698 136.411 193.797 137.172 191.859C137.932 189.922 138.891 188.458 140.047 187.469C141.214 186.479 142.5 185.984 143.906 185.984C144.781 185.984 145.552 186.182 146.219 186.578C146.885 186.964 147.479 187.599 148 188.484H148.125L148.953 186.297H153.797L150.047 204ZM160.562 204H154.516L158.25 186.297H164.328L160.562 204ZM158.984 182.406C158.984 181.333 159.292 180.521 159.906 179.969C160.531 179.417 161.401 179.141 162.516 179.141C163.464 179.141 164.193 179.333 164.703 179.719C165.224 180.094 165.484 180.635 165.484 181.344C165.484 182.385 165.182 183.193 164.578 183.766C163.974 184.328 163.104 184.609 161.969 184.609C159.979 184.609 158.984 183.875 158.984 182.406ZM173.422 199.453C174.109 199.453 175.062 199.208 176.281 198.719V203.266C174.865 203.964 173.094 204.312 170.969 204.312C169.427 204.312 168.255 203.984 167.453 203.328C166.661 202.661 166.266 201.573 166.266 200.062C166.266 199.271 166.391 198.292 166.641 197.125L167.953 190.844H165.547L166.188 187.875L169.594 186.5L171.734 182.75H175.766L175 186.297H179.5L178.516 190.844H174L172.688 196.828C172.521 197.63 172.438 198.177 172.438 198.469C172.438 199.125 172.766 199.453 173.422 199.453ZM179.188 202.016C179.188 200.88 179.526 199.99 180.203 199.344C180.88 198.698 181.812 198.375 183 198.375C183.875 198.375 184.562 198.583 185.062 199C185.562 199.417 185.812 200.016 185.812 200.797C185.812 202.026 185.5 202.932 184.875 203.516C184.25 204.099 183.26 204.391 181.906 204.391C181.094 204.391 180.438 204.198 179.938 203.812C179.438 203.427 179.188 202.828 179.188 202.016ZM189 202.016C189 200.88 189.339 199.99 190.016 199.344C190.693 198.698 191.625 198.375 192.812 198.375C193.688 198.375 194.375 198.583 194.875 199C195.375 199.417 195.625 200.016 195.625 200.797C195.625 202.026 195.312 202.932 194.688 203.516C194.062 204.099 193.073 204.391 191.719 204.391C190.906 204.391 190.25 204.198 189.75 203.812C189.25 203.427 189 202.828 189 202.016ZM198.812 202.016C198.812 200.88 199.151 199.99 199.828 199.344C200.505 198.698 201.438 198.375 202.625 198.375C203.5 198.375 204.188 198.583 204.688 199C205.188 199.417 205.438 200.016 205.438 200.797C205.438 202.026 205.125 202.932 204.5 203.516C203.875 204.099 202.885 204.391 201.531 204.391C200.719 204.391 200.062 204.198 199.562 203.812C199.062 203.427 198.812 202.828 198.812 202.016Z" fill="black"/>
</g>
<defs>
<filter id="filter0_d" x="-7.62939e-06" y="0" width="313.433" height="240.691" filterUnits="userSpaceOnUse" color-interpolation-filters="sRGB">
<feFlood flood-opacity="0" result="BackgroundImageFix"/>
<feColorMatrix in="SourceAlpha" type="matrix" values="0 0 0 0 0 0 0 0 0 0 0 0 0 0 0 0 0 0 127 0"/>
<feOffset dy="4"/>
<feGaussianBlur stdDeviation="2"/>
<feColorMatrix type="matrix" values="0 0 0 0 0 0 0 0 0 0 0 0 0 0 0 0 0 0 1 0"/>
<feBlend mode="normal" in2="BackgroundImageFix" result="effect1_dropShadow"/>
<feBlend mode="normal" in="SourceGraphic" in2="effect1_dropShadow" result="shape"/>
</filter>
</defs>
</svg>
