<svg width="252" height="56" viewBox="0 0 252 56" fill="none" xmlns="http://www.w3.org/2000/svg">
<g filter="url(#filter0_d)">
<rect x="4" width="244" height="47.5808" rx="23.7904" fill="#F2F2F2"/>
<path d="M41.2977 13.9761H43.4373L40.0398 23.9702H37.7293L34.3387 13.9761H36.4783L38.3582 19.9233C38.463 20.2743 38.5701 20.6844 38.6795 21.1538C38.7934 21.6187 38.8641 21.9422 38.8914 22.1245C38.9415 21.7052 39.1124 20.9715 39.4041 19.9233L41.2977 13.9761ZM44.449 14.3521C44.449 13.673 44.8273 13.3335 45.5838 13.3335C46.3403 13.3335 46.7186 13.673 46.7186 14.3521C46.7186 14.6756 46.6229 14.9285 46.4314 15.1108C46.2446 15.2886 45.962 15.3774 45.5838 15.3774C44.8273 15.3774 44.449 15.0356 44.449 14.3521ZM46.6229 23.9702H44.5379V16.3276H46.6229V23.9702ZM51.9822 17.6675C51.5402 17.6675 51.1938 17.8088 50.9432 18.0913C50.6925 18.3693 50.549 18.7658 50.5125 19.2808H53.4383C53.4292 18.7658 53.2947 18.3693 53.035 18.0913C52.7752 17.8088 52.4243 17.6675 51.9822 17.6675ZM52.2762 24.1069C51.0457 24.1069 50.0841 23.7674 49.3914 23.0884C48.6987 22.4093 48.3523 21.4478 48.3523 20.2036C48.3523 18.923 48.6714 17.9341 49.3094 17.2368C49.952 16.535 50.8384 16.1841 51.9686 16.1841C53.0486 16.1841 53.8895 16.4917 54.491 17.1069C55.0926 17.7222 55.3934 18.5721 55.3934 19.6567V20.6685H50.4647C50.4874 21.2609 50.6629 21.7235 50.991 22.0562C51.3191 22.3888 51.7794 22.5552 52.3719 22.5552C52.8322 22.5552 53.2674 22.5073 53.6775 22.4116C54.0877 22.3159 54.5161 22.1632 54.9627 21.9536V23.5669C54.5981 23.7492 54.2085 23.8836 53.7938 23.9702C53.379 24.0614 52.8732 24.1069 52.2762 24.1069ZM63.3709 23.9702L62.783 21.2974L61.99 17.9204H61.9422L60.5477 23.9702H58.3055L56.1316 16.3276H58.2098L59.0916 19.7114C59.2329 20.3175 59.3764 21.1538 59.5223 22.2202H59.5633C59.5815 21.8739 59.6613 21.3247 59.8025 20.5728L59.9119 19.9917L60.8553 16.3276H63.1522L64.0477 19.9917C64.0659 20.092 64.0932 20.2401 64.1297 20.436C64.1707 20.632 64.2094 20.8416 64.2459 21.0649C64.2824 21.2837 64.3143 21.5002 64.3416 21.7144C64.3735 21.924 64.3917 22.0926 64.3963 22.2202H64.4373C64.4783 21.8921 64.5512 21.4432 64.6561 20.8735C64.7609 20.2993 64.8361 19.9119 64.8816 19.7114L65.7977 16.3276H67.8416L65.6404 23.9702H63.3709ZM74.9988 18.6792H75.6961C76.3478 18.6792 76.8354 18.5516 77.159 18.2964C77.4826 18.0366 77.6443 17.6606 77.6443 17.1685C77.6443 16.6717 77.5076 16.3049 77.2342 16.0679C76.9653 15.8309 76.5415 15.7124 75.9627 15.7124H74.9988V18.6792ZM79.784 17.0933C79.784 18.1688 79.4467 18.9914 78.7723 19.561C78.1023 20.1307 77.1476 20.4155 75.908 20.4155H74.9988V23.9702H72.8797V13.9761H76.0721C77.2843 13.9761 78.2049 14.2381 78.8338 14.7622C79.4673 15.2817 79.784 16.0588 79.784 17.0933ZM85.7723 16.1841C86.0548 16.1841 86.2895 16.2046 86.4764 16.2456L86.3191 18.2007C86.1505 18.1551 85.9454 18.1323 85.7039 18.1323C85.0385 18.1323 84.519 18.3032 84.1453 18.645C83.7762 18.9868 83.5916 19.4653 83.5916 20.0806V23.9702H81.5066V16.3276H83.0857L83.3934 17.6128H83.4959C83.7329 17.1844 84.0519 16.8403 84.4529 16.5806C84.8585 16.3162 85.2983 16.1841 85.7723 16.1841ZM91.0291 17.6675C90.587 17.6675 90.2407 17.8088 89.99 18.0913C89.7394 18.3693 89.5958 18.7658 89.5594 19.2808H92.4852C92.476 18.7658 92.3416 18.3693 92.0818 18.0913C91.8221 17.8088 91.4712 17.6675 91.0291 17.6675ZM91.3231 24.1069C90.0926 24.1069 89.131 23.7674 88.4383 23.0884C87.7456 22.4093 87.3992 21.4478 87.3992 20.2036C87.3992 18.923 87.7182 17.9341 88.3563 17.2368C88.9988 16.535 89.8852 16.1841 91.0154 16.1841C92.0955 16.1841 92.9363 16.4917 93.5379 17.1069C94.1395 17.7222 94.4402 18.5721 94.4402 19.6567V20.6685H89.5115C89.5343 21.2609 89.7098 21.7235 90.0379 22.0562C90.366 22.3888 90.8263 22.5552 91.4188 22.5552C91.879 22.5552 92.3143 22.5073 92.7244 22.4116C93.1346 22.3159 93.563 22.1632 94.0096 21.9536V23.5669C93.645 23.7492 93.2553 23.8836 92.8406 23.9702C92.4259 24.0614 91.9201 24.1069 91.3231 24.1069ZM97.9539 23.9702L95.0418 16.3276H97.2225L98.699 20.6821C98.8631 21.2336 98.9656 21.7554 99.0066 22.2476H99.0477C99.0704 21.8101 99.173 21.2882 99.3553 20.6821L100.825 16.3276H103.006L100.094 23.9702H97.9539ZM104.017 14.3521C104.017 13.673 104.396 13.3335 105.152 13.3335C105.909 13.3335 106.287 13.673 106.287 14.3521C106.287 14.6756 106.191 14.9285 106 15.1108C105.813 15.2886 105.53 15.3774 105.152 15.3774C104.396 15.3774 104.017 15.0356 104.017 14.3521ZM106.191 23.9702H104.106V16.3276H106.191V23.9702ZM110.047 20.1353C110.047 20.8918 110.17 21.4637 110.416 21.8511C110.666 22.2384 111.072 22.4321 111.633 22.4321C112.189 22.4321 112.587 22.2407 112.829 21.8579C113.075 21.4705 113.198 20.8963 113.198 20.1353C113.198 19.3787 113.075 18.8114 112.829 18.4331C112.583 18.0549 112.179 17.8657 111.619 17.8657C111.063 17.8657 110.662 18.0549 110.416 18.4331C110.17 18.8068 110.047 19.3742 110.047 20.1353ZM115.331 20.1353C115.331 21.3794 115.003 22.3524 114.346 23.0542C113.69 23.756 112.777 24.1069 111.605 24.1069C110.872 24.1069 110.224 23.9474 109.664 23.6284C109.103 23.3049 108.673 22.8423 108.372 22.2407C108.071 21.6392 107.921 20.9373 107.921 20.1353C107.921 18.8866 108.247 17.9159 108.898 17.2231C109.55 16.5304 110.466 16.1841 111.646 16.1841C112.38 16.1841 113.027 16.3436 113.588 16.6626C114.148 16.9816 114.579 17.4396 114.88 18.0366C115.18 18.6336 115.331 19.3332 115.331 20.1353ZM122.468 23.9702L122.187 22.9927H122.078C121.855 23.3481 121.538 23.6239 121.128 23.8198C120.718 24.0112 120.25 24.1069 119.726 24.1069C118.829 24.1069 118.152 23.8677 117.696 23.3892C117.24 22.9061 117.013 22.2134 117.013 21.311V16.3276H119.097V20.7915C119.097 21.3429 119.195 21.7576 119.391 22.0356C119.587 22.3091 119.9 22.4458 120.328 22.4458C120.911 22.4458 121.333 22.2521 121.593 21.8647C121.852 21.4728 121.982 20.8257 121.982 19.9233V16.3276H124.067V23.9702H122.468ZM131.587 21.7007C131.587 22.4845 131.313 23.0815 130.766 23.4917C130.224 23.9019 129.411 24.1069 128.326 24.1069C127.77 24.1069 127.296 24.0682 126.904 23.9907C126.512 23.9178 126.145 23.8084 125.804 23.6626V21.9399C126.191 22.1222 126.626 22.2749 127.109 22.3979C127.597 22.521 128.025 22.5825 128.394 22.5825C129.151 22.5825 129.529 22.3638 129.529 21.9263C129.529 21.7622 129.479 21.63 129.379 21.5298C129.278 21.425 129.105 21.3088 128.859 21.1812C128.613 21.049 128.285 20.8963 127.875 20.7231C127.287 20.4771 126.854 20.2492 126.576 20.0396C126.303 19.8299 126.102 19.5907 125.974 19.3218C125.851 19.0483 125.79 18.7134 125.79 18.3169C125.79 17.6379 126.052 17.1138 126.576 16.7446C127.105 16.3709 127.852 16.1841 128.818 16.1841C129.739 16.1841 130.634 16.3846 131.505 16.7856L130.876 18.2896C130.493 18.1255 130.135 17.991 129.803 17.8862C129.47 17.7814 129.13 17.729 128.784 17.729C128.169 17.729 127.861 17.8953 127.861 18.228C127.861 18.4149 127.959 18.5767 128.155 18.7134C128.356 18.8501 128.791 19.0529 129.461 19.3218C130.058 19.5633 130.495 19.7889 130.773 19.9985C131.051 20.2082 131.256 20.4497 131.388 20.7231C131.521 20.9966 131.587 21.3224 131.587 21.7007ZM140.87 23.9702H138.751V15.7397H136.037V13.9761H143.584V15.7397H140.87V23.9702ZM148.123 17.6675C147.681 17.6675 147.334 17.8088 147.084 18.0913C146.833 18.3693 146.69 18.7658 146.653 19.2808H149.579C149.57 18.7658 149.435 18.3693 149.176 18.0913C148.916 17.8088 148.565 17.6675 148.123 17.6675ZM148.417 24.1069C147.186 24.1069 146.225 23.7674 145.532 23.0884C144.839 22.4093 144.493 21.4478 144.493 20.2036C144.493 18.923 144.812 17.9341 145.45 17.2368C146.093 16.535 146.979 16.1841 148.109 16.1841C149.189 16.1841 150.03 16.4917 150.632 17.1069C151.233 17.7222 151.534 18.5721 151.534 19.6567V20.6685H146.605C146.628 21.2609 146.804 21.7235 147.132 22.0562C147.46 22.3888 147.92 22.5552 148.513 22.5552C148.973 22.5552 149.408 22.5073 149.818 22.4116C150.228 22.3159 150.657 22.1632 151.103 21.9536V23.5669C150.739 23.7492 150.349 23.8836 149.934 23.9702C149.52 24.0614 149.014 24.1069 148.417 24.1069ZM158.561 21.7007C158.561 22.4845 158.288 23.0815 157.741 23.4917C157.199 23.9019 156.385 24.1069 155.301 24.1069C154.745 24.1069 154.271 24.0682 153.879 23.9907C153.487 23.9178 153.12 23.8084 152.778 23.6626V21.9399C153.165 22.1222 153.601 22.2749 154.084 22.3979C154.571 22.521 155 22.5825 155.369 22.5825C156.125 22.5825 156.504 22.3638 156.504 21.9263C156.504 21.7622 156.454 21.63 156.353 21.5298C156.253 21.425 156.08 21.3088 155.834 21.1812C155.588 21.049 155.26 20.8963 154.849 20.7231C154.262 20.4771 153.829 20.2492 153.551 20.0396C153.277 19.8299 153.077 19.5907 152.949 19.3218C152.826 19.0483 152.764 18.7134 152.764 18.3169C152.764 17.6379 153.027 17.1138 153.551 16.7446C154.079 16.3709 154.827 16.1841 155.793 16.1841C156.713 16.1841 157.609 16.3846 158.479 16.7856L157.85 18.2896C157.468 18.1255 157.11 17.991 156.777 17.8862C156.444 17.7814 156.105 17.729 155.759 17.729C155.143 17.729 154.836 17.8953 154.836 18.228C154.836 18.4149 154.934 18.5767 155.13 18.7134C155.33 18.8501 155.765 19.0529 156.435 19.3218C157.032 19.5633 157.47 19.7889 157.748 19.9985C158.026 20.2082 158.231 20.4497 158.363 20.7231C158.495 20.9966 158.561 21.3224 158.561 21.7007ZM163.408 22.4458C163.773 22.4458 164.21 22.366 164.721 22.2065V23.7583C164.201 23.9907 163.563 24.1069 162.806 24.1069C161.972 24.1069 161.364 23.8973 160.981 23.478C160.603 23.0542 160.414 22.4207 160.414 21.5776V17.8931H159.416V17.0112L160.564 16.314L161.166 14.7007H162.499V16.3276H164.638V17.8931H162.499V21.5776C162.499 21.8739 162.581 22.0926 162.745 22.2339C162.914 22.3752 163.135 22.4458 163.408 22.4458ZM172.192 18.4126H172.876C173.546 18.4126 174.04 18.3009 174.359 18.0776C174.678 17.8543 174.838 17.5034 174.838 17.0249C174.838 16.5509 174.674 16.2137 174.346 16.0132C174.022 15.8127 173.518 15.7124 172.835 15.7124H172.192V18.4126ZM172.192 20.1353V23.9702H170.073V13.9761H172.985C174.343 13.9761 175.348 14.2244 176 14.7212C176.652 15.2134 176.977 15.9631 176.977 16.9702C176.977 17.5581 176.816 18.0822 176.492 18.5425C176.168 18.9982 175.71 19.356 175.118 19.6157C176.622 21.8625 177.602 23.314 178.057 23.9702H175.706L173.32 20.1353H172.192ZM182.316 17.6675C181.874 17.6675 181.528 17.8088 181.277 18.0913C181.027 18.3693 180.883 18.7658 180.846 19.2808H183.772C183.763 18.7658 183.629 18.3693 183.369 18.0913C183.109 17.8088 182.758 17.6675 182.316 17.6675ZM182.61 24.1069C181.38 24.1069 180.418 23.7674 179.725 23.0884C179.033 22.4093 178.686 21.4478 178.686 20.2036C178.686 18.923 179.005 17.9341 179.643 17.2368C180.286 16.535 181.172 16.1841 182.303 16.1841C183.383 16.1841 184.223 16.4917 184.825 17.1069C185.427 17.7222 185.727 18.5721 185.727 19.6567V20.6685H180.799C180.821 21.2609 180.997 21.7235 181.325 22.0562C181.653 22.3888 182.113 22.5552 182.706 22.5552C183.166 22.5552 183.601 22.5073 184.012 22.4116C184.422 22.3159 184.85 22.1632 185.297 21.9536V23.5669C184.932 23.7492 184.542 23.8836 184.128 23.9702C183.713 24.0614 183.207 24.1069 182.61 24.1069ZM192.755 21.7007C192.755 22.4845 192.481 23.0815 191.934 23.4917C191.392 23.9019 190.579 24.1069 189.494 24.1069C188.938 24.1069 188.464 24.0682 188.072 23.9907C187.68 23.9178 187.313 23.8084 186.971 23.6626V21.9399C187.359 22.1222 187.794 22.2749 188.277 22.3979C188.765 22.521 189.193 22.5825 189.562 22.5825C190.319 22.5825 190.697 22.3638 190.697 21.9263C190.697 21.7622 190.647 21.63 190.547 21.5298C190.446 21.425 190.273 21.3088 190.027 21.1812C189.781 21.049 189.453 20.8963 189.043 20.7231C188.455 20.4771 188.022 20.2492 187.744 20.0396C187.471 19.8299 187.27 19.5907 187.142 19.3218C187.019 19.0483 186.958 18.7134 186.958 18.3169C186.958 17.6379 187.22 17.1138 187.744 16.7446C188.273 16.3709 189.02 16.1841 189.986 16.1841C190.907 16.1841 191.802 16.3846 192.673 16.7856L192.044 18.2896C191.661 18.1255 191.303 17.991 190.971 17.8862C190.638 17.7814 190.298 17.729 189.952 17.729C189.337 17.729 189.029 17.8953 189.029 18.228C189.029 18.4149 189.127 18.5767 189.323 18.7134C189.524 18.8501 189.959 19.0529 190.629 19.3218C191.226 19.5633 191.663 19.7889 191.941 19.9985C192.219 20.2082 192.424 20.4497 192.556 20.7231C192.689 20.9966 192.755 21.3224 192.755 21.7007ZM199.796 23.9702L199.515 22.9927H199.406C199.183 23.3481 198.866 23.6239 198.456 23.8198C198.046 24.0112 197.579 24.1069 197.055 24.1069C196.157 24.1069 195.48 23.8677 195.024 23.3892C194.569 22.9061 194.341 22.2134 194.341 21.311V16.3276H196.426V20.7915C196.426 21.3429 196.524 21.7576 196.72 22.0356C196.916 22.3091 197.228 22.4458 197.656 22.4458C198.239 22.4458 198.661 22.2521 198.921 21.8647C199.18 21.4728 199.31 20.8257 199.31 19.9233V16.3276H201.395V23.9702H199.796ZM205.668 23.9702H203.583V13.3335H205.668V23.9702ZM211.082 22.4458C211.446 22.4458 211.884 22.366 212.394 22.2065V23.7583C211.875 23.9907 211.237 24.1069 210.48 24.1069C209.646 24.1069 209.038 23.8973 208.655 23.478C208.277 23.0542 208.088 22.4207 208.088 21.5776V17.8931H207.09V17.0112L208.238 16.314L208.84 14.7007H210.173V16.3276H212.312V17.8931H210.173V21.5776C210.173 21.8739 210.255 22.0926 210.419 22.2339C210.587 22.3752 210.808 22.4458 211.082 22.4458ZM219.278 21.7007C219.278 22.4845 219.005 23.0815 218.458 23.4917C217.916 23.9019 217.102 24.1069 216.017 24.1069C215.461 24.1069 214.987 24.0682 214.596 23.9907C214.204 23.9178 213.837 23.8084 213.495 23.6626V21.9399C213.882 22.1222 214.318 22.2749 214.801 22.3979C215.288 22.521 215.717 22.5825 216.086 22.5825C216.842 22.5825 217.221 22.3638 217.221 21.9263C217.221 21.7622 217.17 21.63 217.07 21.5298C216.97 21.425 216.797 21.3088 216.551 21.1812C216.305 21.049 215.976 20.8963 215.566 20.7231C214.978 20.4771 214.545 20.2492 214.267 20.0396C213.994 19.8299 213.793 19.5907 213.666 19.3218C213.543 19.0483 213.481 18.7134 213.481 18.3169C213.481 17.6379 213.743 17.1138 214.267 16.7446C214.796 16.3709 215.543 16.1841 216.51 16.1841C217.43 16.1841 218.326 16.3846 219.196 16.7856L218.567 18.2896C218.184 18.1255 217.827 17.991 217.494 17.8862C217.161 17.7814 216.822 17.729 216.475 17.729C215.86 17.729 215.553 17.8953 215.553 18.228C215.553 18.4149 215.651 18.5767 215.846 18.7134C216.047 18.8501 216.482 19.0529 217.152 19.3218C217.749 19.5633 218.187 19.7889 218.465 19.9985C218.743 20.2082 218.948 20.4497 219.08 20.7231C219.212 20.9966 219.278 21.3224 219.278 21.7007Z" fill="black"/>
</g>
<defs>
<filter id="filter0_d" x="0" y="0" width="252" height="55.5808" filterUnits="userSpaceOnUse" color-interpolation-filters="sRGB">
<feFlood flood-opacity="0" result="BackgroundImageFix"/>
<feColorMatrix in="SourceAlpha" type="matrix" values="0 0 0 0 0 0 0 0 0 0 0 0 0 0 0 0 0 0 127 0"/>
<feOffset dy="4"/>
<feGaussianBlur stdDeviation="2"/>
<feColorMatrix type="matrix" values="0 0 0 0 0 0 0 0 0 0 0 0 0 0 0 0 0 0 0.25 0"/>
<feBlend mode="normal" in2="BackgroundImageFix" result="effect1_dropShadow"/>
<feBlend mode="normal" in="SourceGraphic" in2="effect1_dropShadow" result="shape"/>
</filter>
</defs>
</svg>
